<?xml version="1.0" standalone="no"?>
<!DOCTYPE svg PUBLIC "-//W3C//DTD SVG 20010904//EN"
 "http://www.w3.org/TR/2001/REC-SVG-20010904/DTD/svg10.dtd">
<svg version="1.0" xmlns="http://www.w3.org/2000/svg"
 width="306.000000pt" height="165.000000pt" viewBox="0 0 306.000000 165.000000"
 preserveAspectRatio="xMidYMid meet">
<metadata>
Created by potrace 1.16, written by Peter Selinger 2001-2019
</metadata>
<g transform="translate(0.000000,165.000000) scale(0.100000,-0.100000)"
fill="#000000" stroke="none">
<path d="M543 1144 c-3 -8 -18 -14 -33 -14 -16 0 -30 -7 -34 -15 -3 -8 -1 -15
4 -15 6 0 10 -36 10 -82 -1 -66 -3 -79 -12 -64 -6 11 -10 48 -9 82 1 35 -3 65
-9 69 -15 9 -50 -4 -50 -19 0 -6 -12 -12 -27 -11 l-28 0 3 -190 c3 -166 2
-187 -10 -165 -8 14 -12 27 -9 30 3 3 6 55 6 115 l0 110 -25 0 -25 0 -3 -112
c-2 -85 0 -113 10 -113 9 0 9 -3 0 -12 -7 -7 -12 -27 -12 -45 0 -29 -3 -33
-25 -33 -22 0 -25 -4 -25 -37 0 -21 -3 -48 -6 -60 -5 -19 -2 -23 19 -23 23 0
24 2 19 46 -5 51 4 64 51 64 21 0 27 5 27 23 0 16 3 18 9 9 5 -8 17 -12 27
-10 16 3 20 15 24 78 6 85 14 83 19 -4 2 -41 -1 -61 -10 -67 -19 -11 2 -32 27
-27 16 3 20 16 25 71 8 100 15 89 12 -20 l-4 -95 30 4 c26 4 30 1 33 -21 4
-36 47 -44 49 -9 1 19 3 17 8 -7 5 -24 12 -30 31 -30 24 0 25 3 25 55 0 49 -2
55 -23 58 -13 2 -24 -3 -28 -12 -3 -9 -10 -13 -15 -10 -5 3 -6 11 -2 17 7 12
9 17 11 50 2 12 11 17 30 17 l27 0 0 115 c0 63 -3 115 -7 115 -4 0 -5 8 -4 18
2 9 5 55 7 102 l4 85 -53 1 c-37 1 -55 -3 -59 -12z"/>
<path d="M679 1158 c-7 -18 -3 -286 4 -295 5 -7 6 -13 1 -13 -5 0 -9 -29 -9
-65 0 -61 1 -65 22 -65 22 0 23 4 23 65 0 41 -4 65 -11 65 -8 0 -8 4 0 14 8 9
11 59 9 152 -3 123 -5 139 -20 142 -10 2 -19 2 -19 0z"/>
<path d="M797 1133 c-4 -3 -7 -46 -7 -95 l0 -88 30 0 c21 0 30 -5 30 -16 0
-13 -3 -14 -14 -5 -7 6 -21 8 -30 5 -14 -5 -16 -19 -14 -83 3 -76 3 -76 31
-76 15 1 27 -5 27 -11 0 -7 -8 -10 -20 -7 -31 8 -47 -11 -42 -53 4 -33 7 -36
33 -32 27 4 29 2 29 -29 0 -29 3 -33 26 -33 17 0 28 6 31 20 3 11 9 17 15 14
5 -3 5 -11 0 -17 -5 -7 -8 -25 -7 -42 2 -25 6 -30 28 -30 14 -1 29 -4 33 -8 4
-4 18 -7 31 -7 16 0 23 6 23 19 0 11 5 23 11 27 9 5 10 -1 5 -20 -6 -23 -3
-26 18 -26 28 0 43 15 24 23 -10 4 -10 7 0 15 10 7 10 11 -2 22 -9 7 -22 10
-30 7 -9 -4 -16 3 -20 19 -9 33 -32 40 -58 18 -20 -18 -21 -18 -15 -1 4 10 7
57 7 103 l0 84 29 0 c16 0 31 6 35 15 3 8 16 15 28 15 23 0 23 1 21 132 -1
121 -3 133 -19 133 -17 0 -18 -10 -16 -124 l3 -124 -20 24 c-10 13 -15 26 -11
29 5 3 8 51 7 107 l-2 102 -55 -2 -55 -2 -1 -58 c-2 -79 -14 -86 -14 -8 0 62
0 63 -25 59 -14 -3 -28 -1 -31 3 -6 11 -38 12 -47 2z"/>
<path d="M1104 1096 c-3 -8 -4 -27 -2 -43 3 -26 6 -28 41 -27 27 1 35 -2 28
-9 -6 -6 -23 -11 -39 -12 -26 0 -27 -1 -30 -67 l-3 -68 36 -2 c19 -1 47 -3 63
-5 84 -10 77 -14 74 47 -2 39 2 61 13 75 14 19 15 15 13 -53 -3 -66 -1 -72 17
-72 18 0 20 7 20 78 0 73 -1 77 -22 76 -15 0 -23 5 -23 16 0 9 -6 25 -14 36
-13 16 -18 17 -35 6 -18 -10 -21 -10 -21 4 0 12 -7 15 -30 12 -18 -3 -31 0
-34 9 -7 17 -45 17 -52 -1z"/>
<path d="M1617 963 c-4 -3 -7 -75 -7 -160 l0 -153 26 0 c14 0 23 3 21 8 -2 4
-1 30 2 57 l6 50 61 1 c73 2 101 15 120 59 19 45 8 90 -28 120 -26 22 -39 25
-112 25 -46 0 -86 -3 -89 -7z m178 -58 c26 -30 27 -46 0 -75 -14 -16 -30 -20
-77 -20 l-58 0 0 60 0 60 55 0 c47 0 60 -4 80 -25z"/>
<path d="M1913 881 c-41 -26 -55 -53 -57 -111 -2 -87 52 -138 134 -127 76 10
121 86 100 168 -21 76 -110 112 -177 70z m90 -30 c37 -14 58 -64 45 -104 -17
-52 -47 -75 -85 -65 -71 18 -84 135 -19 166 27 14 30 14 59 3z"/>
<path d="M2266 885 c-16 -8 -35 -23 -42 -33 -11 -14 -10 -19 3 -29 13 -10 21
-8 45 12 16 14 37 25 47 25 24 0 51 -21 55 -45 4 -18 0 -20 -35 -17 -22 2 -39
0 -39 -6 0 -6 -8 -8 -18 -5 -29 7 -64 -28 -68 -68 -1 -19 0 -40 4 -45 22 -34
102 -45 140 -18 12 8 22 10 22 5 0 -6 8 -11 18 -11 15 0 18 11 20 94 2 86 0
97 -21 121 -28 33 -90 43 -131 20z"/>
<path d="M2643 890 c-12 -5 -29 -21 -39 -35 -25 -38 -7 -69 53 -90 86 -30 93
-34 93 -54 0 -36 -63 -42 -103 -11 -40 31 -69 20 -48 -18 26 -48 148 -56 183
-12 42 51 13 98 -75 124 -64 19 -78 33 -52 53 27 19 59 16 80 -7 18 -20 65
-28 65 -11 0 18 -43 62 -56 57 -8 -3 -14 -1 -14 4 0 12 -57 12 -87 0z"/>
</g>
</svg>
